# xmcd CD database file
#
# Track frame offsets:
#	150
#	14485
#	31784
#	54448
#	73004
#	99670
#	120084
#	138375
#	157070
#	175212
#
# Disc length: 2716 seconds
#
# Revision: 0
# Processed by: cddbd v1.5.2PL0 Copyright (c) Steve Scherf et al.
# Submitted via: jetAudio 7
#
DISCID=7e0a9a0a
DTITLE=林慧玲  - 收藏林慧玲的音樂情詩 Cherish
DYEAR=1900
DGENRE=New Age
TTITLE0=命運之門
TTITLE1=傾城
TTITLE2=飛翔
TTITLE3=收藏I(相悦版)
TTITLE4=青春之歌
TTITLE5=最愛
TTITLE6=收藏II(獨舞版)
TTITLE7=頑皮羅曼史
TTITLE8=天堂回望
TTITLE9=給親愛的爸爸
EXTD=
EXTT0=
EXTT1=
EXTT2=
EXTT3=
EXTT4=
EXTT5=
EXTT6=
EXTT7=
EXTT8=
EXTT9=
PLAYORDER=
